<?xml version="1.0" encoding="utf-8"?>
<!-- Generator: Adobe Illustrator 19.0.1, SVG Export Plug-In . SVG Version: 6.00 Build 0)  -->
<svg version="1.1" id="Layer_1" xmlns="http://www.w3.org/2000/svg" xmlns:xlink="http://www.w3.org/1999/xlink" x="0px" y="0px"
	 viewBox="-291 712.8 496.2 496.2" style="enable-background:new -291 712.8 496.2 496.2;" xml:space="preserve">
<style type="text/css">
	.st0{fill:#703D2A;}
	.st1{fill:#A56C42;}
	.st2{fill:#C6B8AF;}
	.st3{fill:#BA7C49;}
	.st4{fill:#CE2E2E;}
	.st5{fill:#3A3A3A;}
	.st6{fill:#357157;}
	.st7{fill:#BFAFA5;}
	.st8{fill:#C6854A;}
	.st9{fill:#E03636;}
	.st10{fill:#398764;}
	.st11{fill:#CEC0B7;}
	.st12{fill:#D89450;}
	.st13{fill:#E09F65;}
	.st14{fill:#685B51;}
	.st15{fill:#4C4642;}
	.st16{fill:#C1BDBC;}
	.st17{fill:#D8D8D8;}
</style>
<path class="st0" d="M-42.9,712.8c-137,0-248.1,111.1-248.1,248.1c0,137,111.1,248.1,248.1,248.1c137,0,248.1-111.1,248.1-248.1
	C205.2,823.9,94.1,712.8-42.9,712.8z"/>
<path class="st1" d="M-42.9,759.3c-111.3,0-201.6,90.2-201.6,201.6c0,111.3,90.3,201.6,201.6,201.6c111.3,0,201.6-90.3,201.6-201.6
	C158.7,849.6,68.4,759.3-42.9,759.3z"/>
<path class="st2" d="M-42.9,798.3c-89.8,0-162.6,72.8-162.6,162.6c0,89.8,72.8,162.6,162.6,162.6c89.8,0,162.6-72.8,162.6-162.6
	C119.7,871.1,46.9,798.3-42.9,798.3z"/>
<path class="st3" d="M-42.9,806c-85.6,0-155,69.4-155,155c0,85.6,69.4,155,155,155c85.6,0,155-69.4,155-155
	C112,875.3,42.7,806-42.9,806z"/>
<path class="st4" d="M-169.8,872.1c-5.2,7.5-9.7,15.3-13.5,23.4l140.4,65.5L-169.8,872.1z"/>
<g>
	<path class="st5" d="M-183.3,895.4c-3.8,8.2-6.9,16.7-9.2,25.4l149.6,40.1L-183.3,895.4z"/>
	<path class="st5" d="M-152.4,851.4c-6.5,6.5-12.3,13.4-17.4,20.7l126.9,88.9L-152.4,851.4z"/>
</g>
<g>
	<path class="st4" d="M-192.6,920.8c-2.3,8.7-3.9,17.6-4.7,26.6l154.3,13.5L-192.6,920.8z"/>
	<path class="st4" d="M-131.8,834c-7.3,5.1-14.2,10.9-20.7,17.4l109.5,109.5L-131.8,834z"/>
	<path class="st4" d="M-169.8,1049.8l126.9-88.8l-140.4,65.5C-179.6,1034.5-175.1,1042.3-169.8,1049.8z M-42.9,960.9L-42.9,960.9
		L-42.9,960.9L-42.9,960.9z"/>
</g>
<g>
	<path class="st5" d="M-197.2,947.4c-0.8,9-0.8,18,0,27l154.3-13.5L-197.2,947.4z"/>
	<path class="st5" d="M-192.6,1001c2.3,8.7,5.4,17.2,9.2,25.4l140.4-65.5L-192.6,1001z"/>
</g>
<path class="st4" d="M-197.2,974.4c0.8,9,2.3,17.9,4.7,26.6l149.6-40.1v0L-197.2,974.4z"/>
<g>
	<path class="st5" d="M66.6,851.4L-42.9,960.9L84,872.1C78.9,864.8,73.1,857.9,66.6,851.4z"/>
	<path class="st5" d="M-108.4,820.5c-8.1,3.8-15.9,8.3-23.4,13.5l88.9,126.9L-108.4,820.5z"/>
	<path class="st5" d="M-29.4,806.6l-13.5,154.3l40.1-149.6C-11.6,809-20.5,807.4-29.4,806.6z"/>
	<path class="st5" d="M22.6,820.5l-65.5,140.4L45.9,834C38.5,828.8,30.6,824.3,22.6,820.5z"/>
</g>
<g>
	<path class="st4" d="M45.9,834l-88.9,126.9L66.6,851.4C60.1,844.9,53.2,839.1,45.9,834z"/>
	<path class="st4" d="M-2.8,811.3l-40.1,149.6l65.5-140.4C14.3,816.7,5.8,813.6-2.8,811.3z"/>
</g>
<path class="st5" d="M-169.8,1049.8c5.1,7.3,10.9,14.2,17.4,20.7l109.5-109.5L-169.8,1049.8z"/>
<path class="st6" d="M-56.4,806.6l13.5,154.3l13.5-154.3C-38.4,805.8-47.4,805.8-56.4,806.6z"/>
<path class="st5" d="M-56.4,806.6c-9,0.8-17.9,2.3-26.6,4.7l40.1,149.6L-56.4,806.6z"/>
<g>
	<path class="st4" d="M-83,811.3c-8.7,2.3-17.2,5.4-25.4,9.2l65.5,140.4L-83,811.3z"/>
	<path class="st4" d="M-42.9,960.9l149.6,40.1c2.3-8.7,3.9-17.6,4.7-26.6L-42.9,960.9z"/>
	<path class="st4" d="M-42.9,960.9L84,1049.8c5.2-7.5,9.7-15.3,13.5-23.4L-42.9,960.9z"/>
</g>
<path class="st5" d="M111.4,947.4l-154.3,13.5l154.3,13.5C112.2,965.4,112.2,956.4,111.4,947.4z"/>
<g>
	<path class="st4" d="M106.7,920.8l-149.6,40.1l154.3-13.5C110.6,938.5,109,929.6,106.7,920.8z"/>
	<path class="st4" d="M84,872.1l-126.9,88.9l140.4-65.5C93.7,887.4,89.2,879.5,84,872.1z"/>
</g>
<g>
	<path class="st5" d="M97.5,895.4l-140.4,65.5l149.6-40.1C104.4,912.2,101.3,903.7,97.5,895.4z"/>
	<path class="st5" d="M-42.9,960.9l109.5,109.5c6.5-6.5,12.3-13.4,17.4-20.7L-42.9,960.9z"/>
</g>
<g>
	<path class="st4" d="M-42.9,960.9l-109.5,109.5c6.5,6.5,13.4,12.3,20.7,17.4L-42.9,960.9L-42.9,960.9z"/>
	<path class="st4" d="M-42.9,960.9L-42.9,960.9l-13.5,154.3c9,0.8,18,0.8,27,0L-42.9,960.9z"/>
	<path class="st4" d="M-108.4,1101.3c8.2,3.8,16.7,6.9,25.4,9.2l40.1-149.6v0L-108.4,1101.3z"/>
</g>
<g>
	<path class="st5" d="M-83,1110.6c8.7,2.3,17.6,3.9,26.6,4.7l13.5-154.3L-83,1110.6z"/>
	<path class="st5" d="M-108.4,1101.3l65.5-140.4l-88.9,126.9C-124.3,1093.1-116.5,1097.6-108.4,1101.3z M-42.9,960.9L-42.9,960.9
		L-42.9,960.9L-42.9,960.9z"/>
	<path class="st5" d="M-42.9,960.9l13.5,154.3c9-0.8,17.9-2.3,26.6-4.7L-42.9,960.9z"/>
	<path class="st5" d="M-42.9,960.9l65.5,140.4c8.1-3.8,15.9-8.3,23.4-13.5L-42.9,960.9z"/>
</g>
<g>
	<path class="st4" d="M-42.9,960.9l88.9,126.9c7.3-5.1,14.2-10.9,20.7-17.4L-42.9,960.9z"/>
	<path class="st4" d="M-42.9,960.9l40.1,149.6c8.7-2.3,17.2-5.4,25.4-9.2L-42.9,960.9z"/>
</g>
<path class="st5" d="M-42.9,960.9l140.4,65.5c3.8-8.2,6.9-16.7,9.2-25.4L-42.9,960.9z"/>
<path class="st7" d="M-42.9,829.9c-72.3,0-131,58.6-131,131c0,72.3,58.6,131,131,131c72.3,0,131-58.6,131-131
	C88.1,888.6,29.4,829.9-42.9,829.9z"/>
<path class="st8" d="M-42.9,836.8c-68.5,0-124.1,55.6-124.1,124.1c0,68.5,55.6,124.1,124.1,124.1c68.5,0,124.1-55.6,124.1-124.1
	C81.2,892.4,25.6,836.8-42.9,836.8z"/>
<path class="st9" d="M-146.9,888.1c-4.3,6.1-8,12.5-11.1,19.1l115,53.6L-146.9,888.1z"/>
<g>
	<path class="st5" d="M-158,907.3c-3.1,6.7-5.7,13.7-7.6,20.8l122.6,32.8L-158,907.3z"/>
	<path class="st5" d="M-132.6,871.2c-5.3,5.3-10.1,11-14.2,16.9l104,72.8L-132.6,871.2z"/>
</g>
<g>
	<path class="st9" d="M-165.5,928.1c-1.9,7.2-3.2,14.4-3.8,21.8l126.4,11.1L-165.5,928.1z"/>
	<path class="st9" d="M-115.7,857c-6,4.2-11.6,8.9-16.9,14.2l89.7,89.7L-115.7,857z"/>
	<path class="st9" d="M-146.9,1033.7l103.9-72.8l-115,53.6C-154.9,1021.2-151.2,1027.6-146.9,1033.7z M-42.9,960.9L-42.9,960.9
		L-42.9,960.9L-42.9,960.9z"/>
</g>
<g>
	<path class="st5" d="M-169.3,949.9c-0.6,7.4-0.6,14.8,0,22.1l126.4-11.1L-169.3,949.9z"/>
	<path class="st5" d="M-165.5,993.8c1.9,7.1,4.4,14.1,7.6,20.8l115-53.6L-165.5,993.8z"/>
</g>
<path class="st9" d="M-169.3,972c0.6,7.3,1.9,14.6,3.8,21.8l122.6-32.8v0L-169.3,972z"/>
<g>
	<path class="st5" d="M46.8,871.2l-89.7,89.7l104-72.8C56.9,882.2,52.1,876.5,46.8,871.2z"/>
	<path class="st5" d="M-96.6,845.9c-6.6,3.1-13,6.8-19.1,11.1l72.8,104L-96.6,845.9z"/>
	<path class="st5" d="M-31.9,834.5l-11.1,126.4l32.8-122.6C-17.2,836.4-24.5,835.2-31.9,834.5z"/>
	<path class="st5" d="M10.7,845.9l-53.6,115l72.8-104C23.8,852.7,17.3,849,10.7,845.9z"/>
</g>
<g>
	<path class="st9" d="M29.9,857l-72.8,104l89.7-89.7C41.5,865.9,35.8,861.1,29.9,857z"/>
	<path class="st9" d="M-10.1,838.3l-32.8,122.6l53.6-115C4,842.7-3,840.2-10.1,838.3z"/>
</g>
<path class="st5" d="M-146.9,1033.7c4.2,5.9,8.9,11.6,14.2,16.9l89.7-89.7L-146.9,1033.7z"/>
<path class="st10" d="M-54,834.5l11.1,126.4l11.1-126.4C-39.2,833.9-46.6,833.9-54,834.5z"/>
<path class="st5" d="M-54,834.5c-7.3,0.6-14.6,1.9-21.8,3.8l32.8,122.6L-54,834.5z"/>
<g>
	<path class="st9" d="M-75.8,838.3c-7.1,1.9-14.1,4.4-20.8,7.6l53.6,115L-75.8,838.3z"/>
	<path class="st9" d="M-42.9,960.9l122.6,32.8c1.9-7.2,3.2-14.4,3.8-21.8L-42.9,960.9z"/>
	<path class="st9" d="M-42.9,960.9l104,72.8c4.3-6.1,8-12.5,11.1-19.2L-42.9,960.9z"/>
</g>
<path class="st5" d="M83.5,949.9l-126.4,11.1L83.5,972C84.1,964.6,84.1,957.2,83.5,949.9z"/>
<g>
	<path class="st9" d="M79.7,928.1l-122.6,32.8l126.4-11.1C82.8,942.5,81.6,935.2,79.7,928.1z"/>
	<path class="st9" d="M61,888.1l-104,72.8l115-53.6C69,900.7,65.3,894.3,61,888.1z"/>
</g>
<g>
	<path class="st5" d="M72.1,907.3l-115,53.6l122.6-32.8C77.8,921,75.2,914,72.1,907.3z"/>
	<path class="st5" d="M-42.9,960.9l89.7,89.7c5.3-5.3,10.1-11,14.2-16.9L-42.9,960.9z"/>
</g>
<g>
	<path class="st9" d="M-42.9,960.9l-89.7,89.7c5.3,5.3,11,10.1,16.9,14.2L-42.9,960.9L-42.9,960.9z"/>
	<path class="st9" d="M-42.9,960.9L-42.9,960.9L-54,1087.3c7.4,0.6,14.8,0.6,22.1,0L-42.9,960.9z"/>
	<path class="st9" d="M-96.6,1076c6.7,3.1,13.7,5.7,20.8,7.6l32.8-122.6v0L-96.6,1076z"/>
</g>
<g>
	<path class="st5" d="M-75.8,1083.5c7.2,1.9,14.5,3.2,21.8,3.8l11.1-126.4L-75.8,1083.5z"/>
	<path class="st5" d="M-42.9,960.9L-42.9,960.9L-42.9,960.9L-42.9,960.9z M-96.6,1076l53.6-115l-72.8,104
		C-109.6,1069.2-103.2,1072.9-96.6,1076z"/>
	<path class="st5" d="M-42.9,960.9l11.1,126.4c7.3-0.6,14.6-1.9,21.8-3.8L-42.9,960.9z"/>
	<path class="st5" d="M-42.9,960.9l53.6,115c6.6-3.1,13-6.8,19.2-11.1L-42.9,960.9z"/>
</g>
<g>
	<path class="st9" d="M-42.9,960.9l72.8,104c6-4.2,11.6-8.9,16.9-14.2L-42.9,960.9z"/>
	<path class="st9" d="M-42.9,960.9l32.8,122.6c7.1-1.9,14.1-4.4,20.8-7.6L-42.9,960.9z"/>
</g>
<path class="st5" d="M-42.9,960.9l115,53.6c3.1-6.7,5.7-13.7,7.6-20.8L-42.9,960.9z"/>
<path class="st11" d="M-42.9,862.5c-54.4,0-98.5,44.1-98.5,98.5c0,54.4,44.1,98.5,98.5,98.5c54.4,0,98.5-44.1,98.5-98.5
	C55.5,906.5,11.5,862.5-42.9,862.5z"/>
<path class="st12" d="M-42.9,866.6c-52.1,0-94.3,42.2-94.3,94.3c0,52.1,42.2,94.3,94.3,94.3c52.1,0,94.3-42.2,94.3-94.3
	C51.4,908.8,9.2,866.6-42.9,866.6z"/>
<path class="st13" d="M17.7,897.6c-34.2-34.2-89.7-34.2-124,0c-34.2,34.2-34.2,89.7,0,124c17.1,17.1,56.5-5.2,87.5-36.1
	C12.3,954.4,34.8,914.7,17.7,897.6z"/>
<rect id="SVGCleanerId_0" x="-44.4" y="866.2" class="st14" width="3" height="189.4"/>
<rect id="SVGCleanerId_1" x="-137.6" y="959.4" class="st14" width="189.4" height="3"/>
<g transform="matrix(0.7071 -0.7071 0.7071 0.7071 -106.04 256)">
	<g>
		<rect id="SVGCleanerId_1_1_" x="-548.5" y="541.6" class="st14" width="189.4" height="3"/>
	</g>
	<g>
		<rect id="SVGCleanerId_0_1_" x="-455.3" y="448.4" class="st14" width="3" height="189.4"/>
	</g>
</g>
<circle class="st14" cx="-42.9" cy="960.9" r="30.3"/>
<circle class="st15" cx="-42.9" cy="960.9" r="13.2"/>
<path class="st16" d="M-43,761.9c-1.8,0-5.5,7.4-5.5,16.5c0,9.1,3.2,16.5,5.5,16.5s5.5-7.4,5.5-16.5
	C-37.5,769.3-41.2,761.9-43,761.9z"/>
<path class="st17" d="M-43,761.9c-1.8,0-5.5,7.4-5.5,16.5c0,9.1,3.2,16.5,5.5,16.5S-41.2,761.9-43,761.9z"/>
<path class="st16" d="M-43,1126.9c-1.8,0-5.5,7.4-5.5,16.5s3.2,16.5,5.5,16.5s5.5-7.4,5.5-16.5S-41.2,1126.9-43,1126.9z"/>
<path class="st17" d="M-43,1126.9c-1.8,0-5.5,7.4-5.5,16.5s3.2,16.5,5.5,16.5S-41.2,1126.9-43,1126.9z"/>
<path class="st16" d="M139.5,955.4c-9.1,0-16.5,3.2-16.5,5.5s7.4,5.5,16.5,5.5s16.5-3.8,16.5-5.5S148.6,955.4,139.5,955.4z"/>
<path class="st17" d="M139.5,955.4c-9.1,0-16.5,3.2-16.5,5.5s33,1.8,33,0S148.6,955.4,139.5,955.4z"/>
<path class="st16" d="M-225.5,955.4c-9.1,0-16.5,3.2-16.5,5.5s7.4,5.5,16.5,5.5s16.5-3.8,16.5-5.5S-216.4,955.4-225.5,955.4z"/>
<path class="st17" d="M-225.5,955.4c-9.1,0-16.5,3.2-16.5,5.5s33,1.8,33,0S-216.4,955.4-225.5,955.4z"/>
<path class="st16" d="M97.7,820.2c-1.2-1.2-9.1,1.3-15.6,7.8c-6.4,6.4-9.4,14-7.8,15.6c1.6,1.6,9.1-1.3,15.6-7.8
	C96.4,829.3,99,821.4,97.7,820.2z"/>
<path class="st17" d="M97.7,820.2c-1.2-1.2-9.1,1.3-15.6,7.8c-6.4,6.4-9.4,14-7.8,15.6C76,845.1,99,821.4,97.7,820.2z"/>
<path class="st16" d="M-160.4,1078.3c-1.2-1.2-9.1,1.3-15.6,7.8c-6.4,6.4-9.4,14-7.8,15.6c1.6,1.6,9.1-1.3,15.6-7.8
	C-161.7,1087.4-159.1,1079.5-160.4,1078.3z"/>
<path class="st17" d="M-160.4,1078.3c-1.2-1.2-9.1,1.3-15.6,7.8c-6.4,6.4-9.4,14-7.8,15.6C-182.1,1103.2-159.1,1079.5-160.4,1078.3z
	"/>
<path class="st16" d="M89.9,1086.1c-6.4-6.4-14-9.4-15.6-7.8s1.3,9.1,7.8,15.6c6.4,6.4,14.3,9,15.6,7.8
	C99,1100.4,96.4,1092.5,89.9,1086.1z"/>
<path class="st17" d="M89.9,1086.1c-6.4-6.4-14-9.4-15.6-7.8s22.1,24.6,23.3,23.3C99,1100.4,96.4,1092.5,89.9,1086.1z"/>
<path class="st16" d="M-168.2,828c-6.4-6.4-14-9.4-15.6-7.8c-1.6,1.6,1.3,9.1,7.8,15.6c6.4,6.4,14.3,9,15.6,7.8
	C-159.1,842.3-161.7,834.4-168.2,828z"/>
<path class="st17" d="M-168.2,828c-6.4-6.4-14-9.4-15.6-7.8c-1.6,1.6,22.1,24.6,23.3,23.3C-159.1,842.3-161.7,834.4-168.2,828z"/>
<path class="st16" d="M29.2,787.4c-8.4-3.5-16.5-3.4-17.3-1.3c-0.9,2.1,4.7,7.9,13.1,11.4c8.4,3.5,16.7,2.9,17.3,1.3
	C43,797.3,37.6,790.9,29.2,787.4z"/>
<path class="st17" d="M29.2,787.4c-8.4-3.5-16.5-3.4-17.3-1.3c-0.9,2.1,29.8,14.4,30.4,12.8C43,797.3,37.6,790.9,29.2,787.4z"/>
<path class="st16" d="M-111,1122.1c-8.4-3.5-16.5-3.4-17.3-1.3c-0.9,2.1,4.7,7.9,13.1,11.4c8.4,3.5,16.7,2.9,17.3,1.3
	C-97.2,1131.9-102.6,1125.6-111,1122.1z"/>
<path class="st17" d="M-111,1122.1c-8.4-3.5-16.5-3.4-17.3-1.3c-0.9,2.1,29.8,14.4,30.4,12.8C-97.2,1131.9-102.6,1125.6-111,1122.1z
	"/>
<path class="st16" d="M130.7,1014.7c-2.1-0.9-7.9,4.7-11.4,13.1s-2.9,16.7-1.3,17.3c1.6,0.7,7.9-4.7,11.5-13.1
	C132.9,1023.6,132.8,1015.6,130.7,1014.7z"/>
<path class="st17" d="M130.7,1014.7c-2.1-0.9-14.4,29.8-12.8,30.4s7.9-4.7,11.5-13.1C132.9,1023.6,132.8,1015.6,130.7,1014.7z"/>
<path class="st16" d="M-203.9,874.5c-2.1-0.9-7.9,4.7-11.4,13.1c-3.5,8.4-2.9,16.7-1.3,17.3c1.6,0.7,7.9-4.7,11.4-13.1
	C-201.7,883.4-201.9,875.4-203.9,874.5z"/>
<path class="st17" d="M-203.9,874.5c-2.1-0.9-14.4,29.8-12.8,30.4c1.6,0.7,7.9-4.7,11.4-13.1C-201.7,883.4-201.9,875.4-203.9,874.5z
	"/>
<path class="st16" d="M129.9,888.9c-3.5-8.4-9.3-14-11.3-13.2c-2.1,0.9-2.3,8.9,1.2,17.4c3.5,8.4,9.7,13.9,11.3,13.2
	C132.7,905.6,133.4,897.3,129.9,888.9z"/>
<path class="st17" d="M129.9,888.9c-3.5-8.4-9.3-14-11.3-13.2c-2.1,0.9,10.9,31.2,12.5,30.5C132.7,905.6,133.4,897.3,129.9,888.9z"
	/>
<path class="st16" d="M-205.8,1026.4c-3.5-8.4-9.3-14-11.3-13.2c-2.1,0.9-2.3,8.9,1.2,17.4c3.5,8.4,9.7,13.8,11.3,13.2
	C-203.1,1043.1-202.4,1034.8-205.8,1026.4z"/>
<path class="st17" d="M-205.8,1026.4c-3.5-8.4-9.3-14-11.3-13.2c-2.1,0.9,10.9,31.2,12.5,30.5
	C-203.1,1043.1-202.4,1034.8-205.8,1026.4z"/>
<path class="st16" d="M41,1121.4c-0.9-2.1-8.9-2.3-17.4,1.2c-8.4,3.5-13.8,9.7-13.2,11.3c0.7,1.6,8.9,2.3,17.4-1.2
	C36.2,1129.2,41.8,1123.4,41,1121.4z"/>
<path class="st17" d="M41,1121.4c-0.9-2.1-31.2,10.9-30.5,12.5c0.7,1.6,8.9,2.3,17.4-1.2C36.2,1129.2,41.8,1123.4,41,1121.4z"/>
<path class="st16" d="M-96.5,785.6c-0.9-2.1-8.9-2.3-17.4,1.2c-8.4,3.5-13.8,9.7-13.2,11.3c0.7,1.6,8.9,2.3,17.4-1.2
	C-101.3,793.5-95.6,787.7-96.5,785.6z"/>
<path class="st17" d="M-96.5,785.6c-0.9-2.1-31.2,10.9-30.5,12.5c0.7,1.6,8.9,2.3,17.4-1.2C-101.3,793.5-95.6,787.7-96.5,785.6z"/>
</svg>
